<?xml version="1.0" standalone="no"?>
<!DOCTYPE svg PUBLIC "-//W3C//DTD SVG 20010904//EN"
 "http://www.w3.org/TR/2001/REC-SVG-20010904/DTD/svg10.dtd">
<svg version="1.0" xmlns="http://www.w3.org/2000/svg"
 width="512.000000pt" height="512.000000pt" viewBox="0 0 512.000000 512.000000"
 preserveAspectRatio="xMidYMid meet">
<metadata>
Created by potrace 1.11, written by Peter Selinger 2001-2013
</metadata>
<g transform="translate(0.000000,512.000000) scale(0.100000,-0.100000)"
fill="#000000" stroke="none">
<path d="M2609 4736 c-2 -2 -47 -7 -99 -11 -52 -3 -97 -8 -100 -10 -3 -2 -31
-6 -62 -9 -31 -3 -63 -8 -70 -11 -7 -2 -30 -6 -50 -9 -21 -3 -59 -11 -85 -17
-27 -6 -55 -12 -63 -14 -567 -121 -1116 -479 -1409 -918 -46 -68 -145 -249
-149 -270 0 -4 -10 -33 -22 -64 -22 -60 -56 -178 -65 -228 -2 -16 -7 -41 -10
-55 -13 -63 -21 -209 -16 -288 l1 -23 28 19 c15 10 97 58 183 106 86 47 164
95 174 106 10 11 23 55 32 107 41 244 153 443 378 668 208 209 408 341 747
494 26 11 54 21 61 21 7 0 17 4 23 9 10 9 154 58 194 66 12 2 37 9 54 14 17 6
47 13 66 16 19 3 46 8 60 10 60 12 76 15 144 21 117 12 369 6 466 -10 14 -3
43 -7 65 -10 247 -33 576 -136 825 -260 204 -102 324 -188 480 -345 197 -197
319 -420 367 -666 10 -50 10 -305 1 -362 -24 -141 -79 -301 -152 -438 -42 -79
-67 -119 -178 -281 -100 -146 -127 -260 -106 -444 6 -51 31 -212 43 -270 2
-13 7 -40 10 -60 3 -20 7 -45 10 -55 2 -11 7 -35 11 -53 l7 -34 -149 77 c-82
43 -153 81 -159 85 -5 4 -82 44 -169 90 -185 96 -192 97 -361 60 -22 -5 -56
-11 -75 -15 -19 -3 -57 -10 -85 -15 -27 -5 -68 -13 -89 -16 -82 -12 -83 -13
-181 -159 -37 -55 -83 -121 -102 -147 l-33 -46 32 4 c62 9 343 64 438 85 159
36 163 35 455 -97 48 -21 776 -331 823 -349 24 -10 45 -15 48 -12 3 3 -8 43
-26 89 -63 162 -114 348 -125 451 -4 32 -8 68 -11 80 -6 30 -5 200 1 263 7 72
51 218 86 288 17 33 59 100 94 150 110 159 237 440 260 579 3 18 8 39 11 48
19 63 28 353 14 434 -18 104 -21 122 -36 180 -67 261 -235 545 -450 761 -92
92 -278 242 -342 275 -15 8 -45 26 -67 40 -54 36 -240 129 -347 173 -210 86
-470 155 -683 181 -27 4 -61 9 -75 12 -29 6 -485 15 -491 9z"/>
<path d="M1477 3094 c-1 -1 -36 -5 -77 -9 -65 -6 -151 -20 -255 -40 -60 -12
-212 -58 -285 -87 -419 -163 -723 -473 -821 -838 -28 -104 -36 -348 -14 -430
7 -28 14 -54 15 -58 17 -100 54 -179 174 -376 84 -139 108 -211 111 -341 4
-124 -12 -212 -68 -394 -24 -77 -43 -141 -42 -141 2 0 163 68 210 90 22 9 117
50 210 90 94 40 198 85 232 101 118 53 148 56 273 26 87 -21 161 -35 240 -44
81 -10 399 -10 460 0 77 12 103 17 155 28 28 6 60 13 73 15 112 22 354 118
482 192 124 71 196 128 297 231 155 158 278 380 308 556 13 76 14 90 15 175 3
204 -66 413 -203 614 -102 152 -327 338 -522 433 -169 82 -391 157 -525 177
-19 3 -66 10 -105 16 -57 8 -331 20 -338 14z"/>
</g>
</svg>
